<svg viewBox="0 0 24 24" width="24" height="24" fill="none" stroke="currentColor" stroke-width="2" stroke-linecap="round" stroke-linejoin="round">
  <circle cx="12" cy="12" r="3"/>
  <path d="M19.4 15a1.65 1.65 0 0 0 .33 1.82l.06.06a2 2 0 1 1-2.83 2.83l-.06-.06a1.65 1.65 0 0 0-1.82-.33 1.65 1.65 0 0 0-1 1.51V21a2 2 0 1 1-4 0v-.12a1.65 1.65 0 0 0-1-1.51 1.65 1.65 0 0 0-1.82.33l-.06.06A2 2 0 1 1 4.1 17l.06-.06a1.65 1.65 0 0 0 .33-1.82 1.65 1.65 0 0 0-1.51-1H3a2 2 0 1 1 0-4h.12a1.65 1.65 0 0 0 1.51-1 1.65 1.65 0 0 0-.33-1.82l-.06-.06A2 2 0 1 1 6.07 4.1l.06.06a1.65 1.65 0 0 0 1.82.33h0A1.65 1.65 0 0 0 9.45 3H9.57a2 2 0 1 1 4 0h.12a1.65 1.65 0 0 0 1.51 1 1.65 1.65 0 0 0 1.82-.33l.06-.06A2 2 0 1 1 19.9 6.07l-.06.06a1.65 1.65 0 0 0-.33 1.82v0A1.65 1.65 0 0 0 21 9.45V9.57a2 2 0 1 1 0 4h-.12a1.65 1.65 0 0 0-1.51 1z"/>
</svg>
